<?xml version="1.0" encoding="UTF-8"?>
<!-- Generator: Adobe Illustrator 21.1.0, SVG Export Plug-In . SVG Version: 6.00 Build 0)  -->
<svg version="1.1" id="Layer_1" xmlns="http://www.w3.org/2000/svg" xmlns:xlink="http://www.w3.org/1999/xlink" x="0px" y="0px" viewBox="0 0 512 512" style="enable-background:new 0 0 512 512;" xml:space="preserve">
<style type="text/css">
	.st0{fill:#EDEDED;}
	.st1{fill:#939393;}
	.st2{fill:#596273;}
	.st3{fill:#628182;}
	.st4{fill:#D26B3E;}
</style>
<g>
	<polygon class="st0" points="100.6,409.2 423.4,409.2 423.4,391 105.8,391  "/>
	<g>
		<path class="st1" d="M100.6,409.2c11.3,0,12.7-19.6,12.7-19.6h285.1V124.3H88.6v271.4C89.8,401,92.9,409.2,100.6,409.2z"/>
	</g>
	<rect x="113.5" y="102.8" class="st0" width="309.8" height="290.1"/>
	<g>
		<g>
			<g>
				<path class="st2" d="M147.6,171.1v-37.5h9.9l7.8,13.7c2.2,3.9,4.5,8.6,6.1,12.8h0.2c-0.5-4.9-0.7-10-0.7-15.6v-10.9h7.8v37.5      h-8.9l-8-14.5c-2.2-4-4.7-8.9-6.5-13.2l-0.2,0.1c0.2,4.9,0.3,10.3,0.3,16.4v11.3L147.6,171.1L147.6,171.1z"/>
				<path class="st2" d="M208.3,155.3h-13.8v8.9h15.4v7h-23.9v-37.5h23.1v7h-14.7v7.8h13.8L208.3,155.3L208.3,155.3z"/>
				<path class="st2" d="M222.1,171.1l-8.9-37.5h9.1l2.8,15.5c0.9,4.5,1.6,9.3,2.2,13.1h0.1c0.6-4.1,1.5-8.5,2.4-13.2l3.2-15.4h9      l3,15.8c0.9,4.4,1.4,8.4,2,12.6h0.1c0.5-4.1,1.4-8.5,2.2-13l3.1-15.4h8.6l-9.7,37.5h-9.2l-3.2-16.1c-0.7-3.8-1.3-7.3-1.8-11.6      h-0.1c-0.7,4.2-1.2,7.8-2.2,11.6l-3.6,16.1h-9.3V171.1z"/>
				<path class="st2" d="M265.3,162.4c2.3,1.2,5.8,2.4,9.4,2.4c3.9,0,6-1.6,6-4.1c0-2.4-1.8-3.7-6.3-5.3c-6.2-2.2-10.3-5.6-10.3-11      c0-6.4,5.3-11.3,14.2-11.3c4.2,0,7.4,0.9,9.6,1.9l-1.9,6.8c-1.5-0.7-4.1-1.8-7.8-1.8s-5.5,1.6-5.5,3.6c0,2.4,2.1,3.4,7,5.3      c6.6,2.4,9.7,5.9,9.7,11.2c0,6.3-4.9,11.6-15.1,11.6c-4.3,0-8.5-1.1-10.7-2.3L265.3,162.4z"/>
			</g>
		</g>
		<rect x="305.5" y="141.2" class="st3" width="93.1" height="22.2"/>
	</g>
	<rect x="133.7" y="178.7" class="st1" width="278.8" height="12.8"/>
	<rect x="134.6" y="198.9" class="st3" width="147.9" height="88.8"/>
	<rect x="290.3" y="198.9" class="st1" width="122.2" height="10.1"/>
	<rect x="290.3" y="225.2" class="st1" width="122.2" height="10.1"/>
	<rect x="290.3" y="251.5" class="st1" width="122.2" height="10.1"/>
	<rect x="290.3" y="277.7" class="st1" width="122.2" height="10.1"/>
	<rect x="137.8" y="303.3" class="st4" width="266.2" height="36.6"/>
	<rect x="137.8" y="353" class="st3" width="111.2" height="20.4"/>
	<rect x="288.9" y="353" class="st3" width="115" height="20.4"/>
	<rect x="137.8" y="384.3" class="st1" width="111.3" height="10.1"/>
	<rect x="292.7" y="384.3" class="st1" width="111.3" height="10.1"/>
</g>
</svg>